<svg width="924" height="104" viewBox="0 0 924 104" fill="none" xmlns="http://www.w3.org/2000/svg">
<rect width="924" height="104" rx="10" fill="#A9A9A9"/>
<path d="M48.224 52.28C45.368 52.28 43.268 52.088 41.924 51.704C40.58 51.296 39.908 50.984 39.908 50.768C39.908 50.288 39.992 49.388 40.16 48.068C40.352 46.748 40.448 45.092 40.448 43.1V38.528C40.472 37.136 40.544 35.996 40.664 35.108C40.784 34.196 40.916 33.488 41.06 32.984H39.836L38.036 30.572L38.324 29.996H49.988L52.004 32.588L50.24 34.136H49.484C49.22 33.704 48.908 33.404 48.548 33.236C48.212 33.068 47.72 32.984 47.072 32.984H44.804C44.636 33.632 44.468 34.448 44.3 35.432C44.156 36.416 44.084 37.58 44.084 38.924V39.428H48.908L50.528 42.02L50.06 42.56H44.084V44C44.084 45.032 44.06 45.92 44.012 46.664C43.988 47.384 43.928 48.116 43.832 48.86C44.216 48.932 44.684 48.992 45.236 49.04C45.788 49.064 46.4 49.076 47.072 49.076C47.72 49.076 48.344 49.052 48.944 49.004C49.568 48.956 50.144 48.896 50.672 48.824L52.328 51.668L51.896 52.28H48.224ZM58.8254 53.072C57.2894 52.496 56.1014 51.98 55.2614 51.524C54.4454 51.044 54.0374 50.612 54.0374 50.228C54.0374 49.892 54.0734 49.376 54.1454 48.68C54.2414 47.96 54.2894 47.264 54.2894 46.592V36.908C54.2894 35.468 54.3374 34.148 54.4334 32.948C54.5534 31.724 54.6974 30.74 54.8654 29.996H53.3174L51.3374 27.656L51.5894 27.08H56.2694L58.3934 29.816C58.2254 30.752 58.0934 31.82 57.9974 33.02C57.9014 34.196 57.8534 35.396 57.8534 36.62V46.988C57.8534 47.852 57.8174 48.62 57.7454 49.292C57.6734 49.94 57.6374 50.432 57.6374 50.768C57.6374 51.008 57.7214 51.2 57.8894 51.344C58.0814 51.464 58.5374 51.716 59.2574 52.1L58.8254 53.072ZM78.9019 52.82C78.3259 52.628 77.7979 52.436 77.3179 52.244C76.8379 52.028 76.3819 51.8 75.9499 51.56C75.6139 51.896 75.2059 52.172 74.7259 52.388C74.2699 52.58 73.7419 52.676 73.1419 52.676C72.7339 52.676 72.1339 52.544 71.3419 52.28C70.5739 52.016 69.7819 51.68 68.9659 51.272C68.1499 50.84 67.4539 50.372 66.8779 49.868C66.3259 49.34 66.0499 48.824 66.0499 48.32C66.0499 47.696 66.0499 47.144 66.0499 46.664C66.0739 46.16 66.0859 45.86 66.0859 45.764C66.0859 44.348 66.4459 43.352 67.1659 42.776C67.9099 42.176 68.9419 41.876 70.2619 41.876C70.9339 41.876 71.6539 41.924 72.4219 42.02C73.1899 42.116 73.8139 42.224 74.2939 42.344C74.3179 41.672 74.3299 41.036 74.3299 40.436C74.3539 39.812 74.3659 39.344 74.3659 39.032C74.3659 38.768 74.2939 38.576 74.1499 38.456C74.0059 38.336 73.7419 38.276 73.3579 38.276C72.4219 38.276 71.6299 38.348 70.9819 38.492C70.3339 38.636 69.7219 38.876 69.1459 39.212H68.4619L66.1219 35.792L66.4099 35.216H72.4219C72.9019 35.216 73.4419 35.408 74.0419 35.792C74.6659 36.152 75.2779 36.608 75.8779 37.16C76.4779 37.712 76.9699 38.276 77.3539 38.852C77.7379 39.428 77.9299 39.932 77.9299 40.364C77.9299 41.156 77.9059 42.092 77.8579 43.172C77.8099 44.252 77.7619 45.356 77.7139 46.484C77.6659 47.588 77.6419 48.596 77.6419 49.508C77.6419 50.228 77.7619 50.732 78.0019 51.02C78.2419 51.284 78.6979 51.548 79.3699 51.812L78.9019 52.82ZM69.6139 48.32C69.6139 48.92 69.7219 49.304 69.9379 49.472C70.1539 49.616 70.4179 49.688 70.7299 49.688C71.7139 49.688 72.5299 49.436 73.1779 48.932C73.8499 48.404 74.1859 47.588 74.1859 46.484C74.1859 46.268 74.1859 46.004 74.1859 45.692C74.2099 45.38 74.2219 45.032 74.2219 44.648C73.9579 44.576 73.6339 44.528 73.2499 44.504C72.8659 44.48 72.5179 44.468 72.2059 44.468C71.3419 44.468 70.6939 44.66 70.2619 45.044C69.8299 45.428 69.6139 46.1 69.6139 47.06V48.32ZM87.581 53.324C85.517 52.652 84.029 52.076 83.117 51.596C82.205 51.092 81.749 50.732 81.749 50.516C81.749 50.252 81.785 49.796 81.857 49.148C81.953 48.5 82.001 47.492 82.001 46.124V41.66C82.001 41.18 82.025 40.616 82.073 39.968C82.121 39.296 82.193 38.732 82.289 38.276H80.957L79.085 35.792L79.337 35.216H82.721C82.841 35.216 83.069 35.396 83.405 35.756C83.765 36.116 84.113 36.524 84.449 36.98C84.905 36.284 85.493 35.804 86.213 35.54C86.957 35.252 87.629 35.132 88.229 35.18L90.029 37.556L89.813 38.096C88.541 38.096 87.509 38.504 86.717 39.32C85.949 40.112 85.565 41.48 85.565 43.424V46.628C85.565 47.828 85.529 48.764 85.457 49.436C85.409 50.084 85.385 50.516 85.385 50.732C85.385 50.876 85.433 51.008 85.529 51.128C85.625 51.224 85.853 51.344 86.213 51.488C86.597 51.632 87.197 51.872 88.013 52.208L87.581 53.324ZM98.3681 52.712C98.0081 52.712 97.5161 52.58 96.8921 52.316C96.2681 52.028 95.6321 51.668 94.9841 51.236C94.3361 50.78 93.7841 50.312 93.3281 49.832C92.8721 49.328 92.6441 48.848 92.6441 48.392C92.6441 48.128 92.6561 47.852 92.6801 47.564C92.7041 47.276 92.7401 46.904 92.7881 46.448C92.8361 45.968 92.8721 45.332 92.8961 44.54C92.9201 43.748 92.9321 42.716 92.9321 41.444C92.9321 40.964 92.9321 40.46 92.9321 39.932C92.9321 39.404 92.9201 38.852 92.8961 38.276H92.2481L90.4121 35.864L90.6641 35.288C91.9361 35.144 92.7401 34.76 93.0761 34.136C93.4121 33.512 93.5801 32.564 93.5801 31.292L94.1921 31.076L96.3881 32.732C96.3881 33.164 96.3881 33.584 96.3881 33.992C96.3881 34.4 96.3881 34.808 96.3881 35.216H99.4481L101.248 37.736L100.996 38.276H96.4241C96.4241 39.14 96.4241 39.968 96.4241 40.76C96.4241 41.552 96.4241 42.308 96.4241 43.028C96.4241 44.42 96.4001 45.488 96.3521 46.232C96.3281 46.976 96.2921 47.528 96.2441 47.888C96.1961 48.248 96.1721 48.584 96.1721 48.896C96.1721 49.376 96.4241 49.616 96.9281 49.616C97.3601 49.616 97.8281 49.508 98.3321 49.292C98.8361 49.052 99.3041 48.764 99.7361 48.428H100.24L101.932 51.236C101.596 51.644 101.068 51.992 100.348 52.28C99.6281 52.568 98.9681 52.712 98.3681 52.712ZM110.665 52.748C110.089 52.748 109.381 52.604 108.541 52.316C107.701 52.004 106.861 51.608 106.021 51.128C105.205 50.624 104.521 50.084 103.969 49.508C103.417 48.908 103.141 48.32 103.141 47.744C103.141 47.168 103.177 46.172 103.249 44.756C103.345 43.34 103.393 41.648 103.393 39.68C103.393 36.56 105.097 35 108.505 35C109.033 35 109.645 35.168 110.341 35.504C111.037 35.816 111.709 36.236 112.357 36.764C113.005 37.268 113.545 37.796 113.977 38.348C114.409 38.9 114.625 39.416 114.625 39.896V42.848C114.625 44.792 113.545 45.764 111.385 45.764C110.713 45.764 109.945 45.728 109.081 45.656C108.217 45.56 107.449 45.452 106.777 45.332C106.753 46.124 106.729 46.844 106.705 47.492C106.705 48.116 106.705 48.476 106.705 48.572C106.705 48.956 106.801 49.232 106.993 49.4C107.185 49.568 107.533 49.652 108.037 49.652C108.781 49.652 109.585 49.544 110.449 49.328C111.337 49.088 112.129 48.74 112.825 48.284H113.365L115.309 51.236C114.853 51.668 114.169 52.028 113.257 52.316C112.369 52.604 111.505 52.748 110.665 52.748ZM106.885 40.832C106.885 41.024 106.873 41.312 106.849 41.696C106.849 42.08 106.849 42.512 106.849 42.992C107.545 43.064 108.349 43.1 109.261 43.1C109.957 43.1 110.437 42.932 110.701 42.596C110.989 42.236 111.133 41.696 111.133 40.976V39.032C111.133 38.768 111.061 38.54 110.917 38.348C110.773 38.156 110.461 38.06 109.981 38.06C109.021 38.06 108.265 38.264 107.713 38.672C107.161 39.056 106.885 39.776 106.885 40.832ZM135.376 52.928C134.824 52.76 134.332 52.58 133.9 52.388C133.492 52.196 133.036 51.956 132.532 51.668C132.052 52.076 131.56 52.376 131.056 52.568C130.576 52.736 129.964 52.82 129.22 52.82C128.644 52.82 127.948 52.676 127.132 52.388C126.34 52.1 125.548 51.716 124.756 51.236C123.988 50.756 123.34 50.204 122.812 49.58C122.308 48.956 122.056 48.32 122.056 47.672C122.056 47.408 122.092 46.652 122.164 45.404C122.236 44.132 122.272 42.296 122.272 39.896C122.272 38.192 122.74 36.968 123.676 36.224C124.612 35.48 125.92 35.108 127.6 35.108C128.104 35.108 128.632 35.204 129.184 35.396C129.76 35.588 130.276 35.816 130.732 36.08C130.756 34.808 130.816 33.644 130.912 32.588C131.008 31.532 131.14 30.668 131.308 29.996H129.76L127.78 27.656L128.032 27.08H132.712L134.836 29.816C134.668 30.752 134.536 31.82 134.44 33.02C134.344 34.196 134.296 35.396 134.296 36.62V42.056C134.296 43.232 134.272 44.444 134.224 45.692C134.176 46.916 134.164 48.224 134.188 49.616C134.212 50.336 134.332 50.828 134.548 51.092C134.764 51.356 135.22 51.632 135.916 51.92L135.376 52.928ZM125.656 48.644C125.656 49.052 125.752 49.34 125.944 49.508C126.16 49.676 126.484 49.76 126.916 49.76C128.212 49.76 129.172 49.46 129.796 48.86C130.42 48.26 130.732 47.42 130.732 46.34V38.42C130.276 38.324 129.784 38.276 129.256 38.276C128.248 38.276 127.42 38.492 126.772 38.924C126.148 39.356 125.824 40.172 125.8 41.372L125.656 48.644ZM140.609 32.804L138.233 30.248V29.888C138.881 29.024 139.757 28.268 140.861 27.62L143.237 30.104L143.201 30.536C142.721 30.872 142.265 31.244 141.833 31.652C141.425 32.06 141.017 32.444 140.609 32.804ZM143.813 53.072C142.277 52.496 141.089 51.98 140.249 51.524C139.433 51.044 139.025 50.612 139.025 50.228C139.025 49.892 139.061 49.376 139.133 48.68C139.229 47.96 139.277 47.264 139.277 46.592V41.444C139.277 40.82 139.301 40.244 139.349 39.716C139.421 39.164 139.529 38.684 139.673 38.276H138.485L136.577 35.828L136.829 35.216H141.437L143.525 38.024C143.237 38.408 143.045 38.888 142.949 39.464C142.877 40.04 142.841 40.772 142.841 41.66V46.988C142.841 47.852 142.805 48.62 142.733 49.292C142.661 49.94 142.625 50.432 142.625 50.768C142.625 51.008 142.709 51.2 142.877 51.344C143.069 51.464 143.525 51.716 144.245 52.1L143.813 53.072ZM152.751 59.912C150.903 59.912 149.415 59.396 148.287 58.364C147.159 57.332 146.271 55.628 145.623 53.252L146.811 52.892C147.243 53.996 147.795 54.836 148.467 55.412C149.139 55.988 150.099 56.276 151.347 56.276C152.307 56.276 153.183 56.156 153.975 55.916C154.767 55.676 155.403 55.34 155.883 54.908C156.363 54.5 156.603 54.056 156.603 53.576C156.603 53.144 156.399 52.928 155.991 52.928C155.631 52.928 155.187 52.988 154.659 53.108C154.131 53.228 153.591 53.348 153.039 53.468C152.487 53.612 151.971 53.684 151.491 53.684C150.987 53.684 150.459 53.492 149.907 53.108C149.355 52.724 148.827 52.256 148.323 51.704C147.843 51.128 147.447 50.552 147.135 49.976C146.847 49.376 146.703 48.872 146.703 48.464C146.703 47.696 146.931 47.072 147.387 46.592C147.867 46.112 148.443 45.74 149.115 45.476C147.459 44.708 146.631 43.436 146.631 41.66V39.968C146.631 38.48 146.931 37.34 147.531 36.548C148.155 35.732 149.211 35.264 150.699 35.144L153.255 34.928C154.095 34.856 154.707 34.676 155.091 34.388C155.475 34.1 155.727 33.632 155.847 32.984L156.279 32.732L158.763 34.172C158.619 35.252 158.271 36.068 157.719 36.62C157.191 37.172 156.507 37.544 155.667 37.736C156.315 38.072 156.831 38.54 157.215 39.14C157.623 39.74 157.827 40.4 157.827 41.12V42.812C157.827 43.916 157.719 44.804 157.503 45.476C157.287 46.148 156.867 46.664 156.243 47.024C155.643 47.384 154.743 47.684 153.543 47.924L151.995 48.212C150.987 48.38 150.303 48.608 149.943 48.896C149.583 49.16 149.403 49.472 149.403 49.832C149.403 50.216 149.643 50.408 150.123 50.408C150.675 50.408 151.263 50.336 151.887 50.192C152.535 50.048 153.147 49.904 153.723 49.76C154.323 49.616 154.815 49.544 155.199 49.544C155.679 49.544 156.135 49.772 156.567 50.228C157.023 50.66 157.419 51.212 157.755 51.884C158.115 52.532 158.391 53.192 158.583 53.864C158.799 54.56 158.907 55.148 158.907 55.628C158.907 56.996 158.319 58.052 157.143 58.796C155.991 59.54 154.527 59.912 152.751 59.912ZM149.979 42.452C149.979 43.1 150.063 43.652 150.231 44.108C150.423 44.54 150.723 44.828 151.131 44.972L152.283 44.792C152.979 44.672 153.543 44.444 153.975 44.108C154.407 43.772 154.623 43.052 154.623 41.948V40.76C154.623 39.776 154.539 39.08 154.371 38.672C154.203 38.24 153.927 37.988 153.543 37.916L152.211 38.024C151.323 38.096 150.723 38.36 150.411 38.816C150.123 39.272 149.979 40.04 149.979 41.12V42.452ZM163.672 32.804L161.296 30.248V29.888C161.944 29.024 162.82 28.268 163.924 27.62L166.3 30.104L166.264 30.536C165.784 30.872 165.328 31.244 164.896 31.652C164.488 32.06 164.08 32.444 163.672 32.804ZM166.876 53.072C165.34 52.496 164.152 51.98 163.312 51.524C162.496 51.044 162.088 50.612 162.088 50.228C162.088 49.892 162.124 49.376 162.196 48.68C162.292 47.96 162.34 47.264 162.34 46.592V41.444C162.34 40.82 162.364 40.244 162.412 39.716C162.484 39.164 162.592 38.684 162.736 38.276H161.548L159.64 35.828L159.892 35.216H164.5L166.588 38.024C166.3 38.408 166.108 38.888 166.012 39.464C165.94 40.04 165.904 40.772 165.904 41.66V46.988C165.904 47.852 165.868 48.62 165.796 49.292C165.724 49.94 165.688 50.432 165.688 50.768C165.688 51.008 165.772 51.2 165.94 51.344C166.132 51.464 166.588 51.716 167.308 52.1L166.876 53.072ZM175.993 52.712C175.633 52.712 175.141 52.58 174.517 52.316C173.893 52.028 173.257 51.668 172.609 51.236C171.961 50.78 171.409 50.312 170.953 49.832C170.497 49.328 170.269 48.848 170.269 48.392C170.269 48.128 170.281 47.852 170.305 47.564C170.329 47.276 170.365 46.904 170.413 46.448C170.461 45.968 170.497 45.332 170.521 44.54C170.545 43.748 170.557 42.716 170.557 41.444C170.557 40.964 170.557 40.46 170.557 39.932C170.557 39.404 170.545 38.852 170.521 38.276H169.873L168.037 35.864L168.289 35.288C169.561 35.144 170.365 34.76 170.701 34.136C171.037 33.512 171.205 32.564 171.205 31.292L171.817 31.076L174.013 32.732C174.013 33.164 174.013 33.584 174.013 33.992C174.013 34.4 174.013 34.808 174.013 35.216H177.073L178.873 37.736L178.621 38.276H174.049C174.049 39.14 174.049 39.968 174.049 40.76C174.049 41.552 174.049 42.308 174.049 43.028C174.049 44.42 174.025 45.488 173.977 46.232C173.953 46.976 173.917 47.528 173.869 47.888C173.821 48.248 173.797 48.584 173.797 48.896C173.797 49.376 174.049 49.616 174.553 49.616C174.985 49.616 175.453 49.508 175.957 49.292C176.461 49.052 176.929 48.764 177.361 48.428H177.865L179.557 51.236C179.221 51.644 178.693 51.992 177.973 52.28C177.253 52.568 176.593 52.712 175.993 52.712ZM193.582 52.82C193.006 52.628 192.478 52.436 191.998 52.244C191.518 52.028 191.062 51.8 190.63 51.56C190.294 51.896 189.886 52.172 189.406 52.388C188.95 52.58 188.422 52.676 187.822 52.676C187.414 52.676 186.814 52.544 186.022 52.28C185.254 52.016 184.462 51.68 183.646 51.272C182.83 50.84 182.134 50.372 181.558 49.868C181.006 49.34 180.73 48.824 180.73 48.32C180.73 47.696 180.73 47.144 180.73 46.664C180.754 46.16 180.766 45.86 180.766 45.764C180.766 44.348 181.126 43.352 181.846 42.776C182.59 42.176 183.622 41.876 184.942 41.876C185.614 41.876 186.334 41.924 187.102 42.02C187.87 42.116 188.494 42.224 188.974 42.344C188.998 41.672 189.01 41.036 189.01 40.436C189.034 39.812 189.046 39.344 189.046 39.032C189.046 38.768 188.974 38.576 188.83 38.456C188.686 38.336 188.422 38.276 188.038 38.276C187.102 38.276 186.31 38.348 185.662 38.492C185.014 38.636 184.402 38.876 183.826 39.212H183.142L180.802 35.792L181.09 35.216H187.102C187.582 35.216 188.122 35.408 188.722 35.792C189.346 36.152 189.958 36.608 190.558 37.16C191.158 37.712 191.65 38.276 192.034 38.852C192.418 39.428 192.61 39.932 192.61 40.364C192.61 41.156 192.586 42.092 192.538 43.172C192.49 44.252 192.442 45.356 192.394 46.484C192.346 47.588 192.322 48.596 192.322 49.508C192.322 50.228 192.442 50.732 192.682 51.02C192.922 51.284 193.378 51.548 194.05 51.812L193.582 52.82ZM184.294 48.32C184.294 48.92 184.402 49.304 184.618 49.472C184.834 49.616 185.098 49.688 185.41 49.688C186.394 49.688 187.21 49.436 187.858 48.932C188.53 48.404 188.866 47.588 188.866 46.484C188.866 46.268 188.866 46.004 188.866 45.692C188.89 45.38 188.902 45.032 188.902 44.648C188.638 44.576 188.314 44.528 187.93 44.504C187.546 44.48 187.198 44.468 186.886 44.468C186.022 44.468 185.374 44.66 184.942 45.044C184.51 45.428 184.294 46.1 184.294 47.06V48.32ZM200.857 53.072C199.321 52.496 198.133 51.98 197.293 51.524C196.477 51.044 196.069 50.612 196.069 50.228C196.069 49.892 196.105 49.376 196.177 48.68C196.273 47.96 196.321 47.264 196.321 46.592V36.908C196.321 35.468 196.369 34.148 196.465 32.948C196.585 31.724 196.729 30.74 196.897 29.996H195.349L193.369 27.656L193.621 27.08H198.301L200.425 29.816C200.257 30.752 200.125 31.82 200.029 33.02C199.933 34.196 199.885 35.396 199.885 36.62V46.988C199.885 47.852 199.849 48.62 199.777 49.292C199.705 49.94 199.669 50.432 199.669 50.768C199.669 51.008 199.753 51.2 199.921 51.344C200.113 51.464 200.569 51.716 201.289 52.1L200.857 53.072Z" fill="black"/>
<rect x="248" y="11" width="637" height="83" rx="10" fill="#5E5E5E"/>
<path d="M259.92 37C259.04 36.7067 258.373 36.4333 257.92 36.18C257.467 35.9267 257.24 35.72 257.24 35.56C257.24 35.4133 257.253 35.26 257.28 35.1C257.307 34.94 257.333 34.7067 257.36 34.4C257.387 34.0933 257.4 33.6533 257.4 33.08V29.56C257.4 28.6133 257.42 27.8467 257.46 27.26C257.513 26.6733 257.58 26.2133 257.66 25.88H256.96L255.98 24.54L256.12 24.22H258.76C258.84 24.22 258.993 24.3867 259.22 24.72C259.447 25.0533 259.713 25.5933 260.02 26.34L262.82 33.1C262.753 32.3267 262.713 31.5733 262.7 30.84V28.84C262.7 28.1067 262.72 27.5133 262.76 27.06C262.813 26.5933 262.88 26.2 262.96 25.88H262.2L261.34 24.54L261.48 24.22H264.1L265.1 25.72C265.007 25.9733 264.92 26.3133 264.84 26.74C264.76 27.1533 264.72 27.7533 264.72 28.54V32.34C264.72 33.3133 264.693 34.1067 264.64 34.72C264.6 35.3333 264.56 35.7333 264.52 35.92C264.64 36 264.767 36.08 264.9 36.16C265.033 36.2267 265.167 36.2933 265.3 36.36L265 36.98C264.253 36.6733 263.627 36.3533 263.12 36.02C262.627 35.6867 262.347 35.44 262.28 35.28L259.38 28.22C259.407 28.6333 259.42 29.0533 259.42 29.48C259.42 29.9067 259.42 30.3267 259.42 30.74V33.52C259.42 34.0933 259.4 34.5533 259.36 34.9C259.333 35.2333 259.32 35.4933 259.32 35.68C259.32 35.9067 259.607 36.1533 260.18 36.42L259.92 37ZM273.743 36.9C273.423 36.7933 273.129 36.6867 272.863 36.58C272.596 36.46 272.343 36.3333 272.103 36.2C271.916 36.3867 271.689 36.54 271.423 36.66C271.169 36.7667 270.876 36.82 270.543 36.82C270.316 36.82 269.983 36.7467 269.543 36.6C269.116 36.4533 268.676 36.2667 268.223 36.04C267.769 35.8 267.383 35.54 267.063 35.26C266.756 34.9667 266.603 34.68 266.603 34.4C266.603 34.0533 266.603 33.7467 266.603 33.48C266.616 33.2 266.623 33.0333 266.623 32.98C266.623 32.1933 266.823 31.64 267.223 31.32C267.636 30.9867 268.209 30.82 268.943 30.82C269.316 30.82 269.716 30.8467 270.143 30.9C270.569 30.9533 270.916 31.0133 271.183 31.08C271.196 30.7067 271.203 30.3533 271.203 30.02C271.216 29.6733 271.223 29.4133 271.223 29.24C271.223 29.0933 271.183 28.9867 271.103 28.92C271.023 28.8533 270.876 28.82 270.663 28.82C270.143 28.82 269.703 28.86 269.343 28.94C268.983 29.02 268.643 29.1533 268.323 29.34H267.943L266.643 27.44L266.803 27.12H270.143C270.409 27.12 270.709 27.2267 271.043 27.44C271.389 27.64 271.729 27.8933 272.063 28.2C272.396 28.5067 272.669 28.82 272.883 29.14C273.096 29.46 273.203 29.74 273.203 29.98C273.203 30.42 273.189 30.94 273.163 31.54C273.136 32.14 273.109 32.7533 273.083 33.38C273.056 33.9933 273.043 34.5533 273.043 35.06C273.043 35.46 273.109 35.74 273.243 35.9C273.376 36.0467 273.629 36.1933 274.003 36.34L273.743 36.9ZM268.583 34.4C268.583 34.7333 268.643 34.9467 268.763 35.04C268.883 35.12 269.029 35.16 269.203 35.16C269.749 35.16 270.203 35.02 270.563 34.74C270.936 34.4467 271.123 33.9933 271.123 33.38C271.123 33.26 271.123 33.1133 271.123 32.94C271.136 32.7667 271.143 32.5733 271.143 32.36C270.996 32.32 270.816 32.2933 270.603 32.28C270.389 32.2667 270.196 32.26 270.023 32.26C269.543 32.26 269.183 32.3667 268.943 32.58C268.703 32.7933 268.583 33.1667 268.583 33.7V34.4ZM278.685 37.04C278.538 37.04 278.325 36.9467 278.045 36.76C277.778 36.56 277.498 36.32 277.205 36.04C276.911 35.76 276.651 35.5 276.425 35.26C276.211 35.0067 276.091 34.82 276.065 34.7C275.771 33.5133 275.531 32.5667 275.345 31.86C275.158 31.14 275.018 30.5867 274.925 30.2C274.845 29.8 274.805 29.4933 274.805 29.28C274.805 29.12 274.825 28.9667 274.865 28.82H274.405L273.425 27.44L273.585 27.12H276.125L277.045 28.46V28.72C276.751 28.7733 276.551 28.8867 276.445 29.06C276.338 29.2333 276.285 29.4533 276.285 29.72C276.285 29.8667 276.318 30.1067 276.385 30.44C276.451 30.76 276.578 31.2733 276.765 31.98C276.951 32.6733 277.225 33.6467 277.585 34.9C277.771 34.42 277.958 33.9333 278.145 33.44C278.331 32.9333 278.551 32.32 278.805 31.6C279.058 30.8667 279.378 29.94 279.765 28.82H278.885L277.965 27.44L278.105 27.12H280.605L281.825 28.8C281.265 30.4667 280.798 31.84 280.425 32.92C280.051 33.9867 279.751 34.82 279.525 35.42C279.298 36.02 279.118 36.44 278.985 36.68C278.865 36.92 278.765 37.04 278.685 37.04ZM287.014 36.86C286.694 36.86 286.3 36.78 285.834 36.62C285.367 36.4467 284.9 36.2267 284.434 35.96C283.98 35.68 283.6 35.38 283.294 35.06C282.987 34.7267 282.834 34.4 282.834 34.08C282.834 33.76 282.854 33.2067 282.894 32.42C282.947 31.6333 282.974 30.6933 282.974 29.6C282.974 27.8667 283.92 27 285.814 27C286.107 27 286.447 27.0933 286.834 27.28C287.22 27.4533 287.594 27.6867 287.954 27.98C288.314 28.26 288.614 28.5533 288.854 28.86C289.094 29.1667 289.214 29.4533 289.214 29.72V31.36C289.214 32.44 288.614 32.98 287.414 32.98C287.04 32.98 286.614 32.96 286.134 32.92C285.654 32.8667 285.227 32.8067 284.854 32.74C284.84 33.18 284.827 33.58 284.814 33.94C284.814 34.2867 284.814 34.4867 284.814 34.54C284.814 34.7533 284.867 34.9067 284.974 35C285.08 35.0933 285.274 35.14 285.554 35.14C285.967 35.14 286.414 35.08 286.894 34.96C287.387 34.8267 287.827 34.6333 288.214 34.38H288.514L289.594 36.02C289.34 36.26 288.96 36.46 288.454 36.62C287.96 36.78 287.48 36.86 287.014 36.86ZM284.914 30.24C284.914 30.3467 284.907 30.5067 284.894 30.72C284.894 30.9333 284.894 31.1733 284.894 31.44C285.28 31.48 285.727 31.5 286.234 31.5C286.62 31.5 286.887 31.4067 287.034 31.22C287.194 31.02 287.274 30.72 287.274 30.32V29.24C287.274 29.0933 287.234 28.9667 287.154 28.86C287.074 28.7533 286.9 28.7 286.634 28.7C286.1 28.7 285.68 28.8133 285.374 29.04C285.067 29.2533 284.914 29.6533 284.914 30.24ZM294.145 40.84C293.118 40.84 292.292 40.5533 291.665 39.98C291.038 39.4067 290.545 38.46 290.185 37.14L290.845 36.94C291.085 37.5533 291.392 38.02 291.765 38.34C292.138 38.66 292.672 38.82 293.365 38.82C293.898 38.82 294.385 38.7533 294.825 38.62C295.265 38.4867 295.618 38.3 295.885 38.06C296.152 37.8333 296.285 37.5867 296.285 37.32C296.285 37.08 296.172 36.96 295.945 36.96C295.745 36.96 295.498 36.9933 295.205 37.06C294.912 37.1267 294.612 37.1933 294.305 37.26C293.998 37.34 293.712 37.38 293.445 37.38C293.165 37.38 292.872 37.2733 292.565 37.06C292.258 36.8467 291.965 36.5867 291.685 36.28C291.418 35.96 291.198 35.64 291.025 35.32C290.865 34.9867 290.785 34.7067 290.785 34.48C290.785 34.0533 290.912 33.7067 291.165 33.44C291.432 33.1733 291.752 32.9667 292.125 32.82C291.205 32.3933 290.745 31.6867 290.745 30.7V29.76C290.745 28.9333 290.912 28.3 291.245 27.86C291.592 27.4067 292.178 27.1467 293.005 27.08L294.425 26.96C294.892 26.92 295.232 26.82 295.445 26.66C295.658 26.5 295.798 26.24 295.865 25.88L296.105 25.74L297.485 26.54C297.405 27.14 297.212 27.5933 296.905 27.9C296.612 28.2067 296.232 28.4133 295.765 28.52C296.125 28.7067 296.412 28.9667 296.625 29.3C296.852 29.6333 296.965 30 296.965 30.4V31.34C296.965 31.9533 296.905 32.4467 296.785 32.82C296.665 33.1933 296.432 33.48 296.085 33.68C295.752 33.88 295.252 34.0467 294.585 34.18L293.725 34.34C293.165 34.4333 292.785 34.56 292.585 34.72C292.385 34.8667 292.285 35.04 292.285 35.24C292.285 35.4533 292.418 35.56 292.685 35.56C292.992 35.56 293.318 35.52 293.665 35.44C294.025 35.36 294.365 35.28 294.685 35.2C295.018 35.12 295.292 35.08 295.505 35.08C295.772 35.08 296.025 35.2067 296.265 35.46C296.518 35.7 296.738 36.0067 296.925 36.38C297.125 36.74 297.278 37.1067 297.385 37.48C297.505 37.8667 297.565 38.1933 297.565 38.46C297.565 39.22 297.238 39.8067 296.585 40.22C295.945 40.6333 295.132 40.84 294.145 40.84ZM292.605 31.14C292.605 31.5 292.652 31.8067 292.745 32.06C292.852 32.3 293.018 32.46 293.245 32.54L293.885 32.44C294.272 32.3733 294.585 32.2467 294.825 32.06C295.065 31.8733 295.185 31.4733 295.185 30.86V30.2C295.185 29.6533 295.138 29.2667 295.045 29.04C294.952 28.8 294.798 28.66 294.585 28.62L293.845 28.68C293.352 28.72 293.018 28.8667 292.845 29.12C292.685 29.3733 292.605 29.8 292.605 30.4V31.14ZM305.715 36.9C305.395 36.7933 305.102 36.6867 304.835 36.58C304.569 36.46 304.315 36.3333 304.075 36.2C303.889 36.3867 303.662 36.54 303.395 36.66C303.142 36.7667 302.849 36.82 302.515 36.82C302.289 36.82 301.955 36.7467 301.515 36.6C301.089 36.4533 300.649 36.2667 300.195 36.04C299.742 35.8 299.355 35.54 299.035 35.26C298.729 34.9667 298.575 34.68 298.575 34.4C298.575 34.0533 298.575 33.7467 298.575 33.48C298.589 33.2 298.595 33.0333 298.595 32.98C298.595 32.1933 298.795 31.64 299.195 31.32C299.609 30.9867 300.182 30.82 300.915 30.82C301.289 30.82 301.689 30.8467 302.115 30.9C302.542 30.9533 302.889 31.0133 303.155 31.08C303.169 30.7067 303.175 30.3533 303.175 30.02C303.189 29.6733 303.195 29.4133 303.195 29.24C303.195 29.0933 303.155 28.9867 303.075 28.92C302.995 28.8533 302.849 28.82 302.635 28.82C302.115 28.82 301.675 28.86 301.315 28.94C300.955 29.02 300.615 29.1533 300.295 29.34H299.915L298.615 27.44L298.775 27.12H302.115C302.382 27.12 302.682 27.2267 303.015 27.44C303.362 27.64 303.702 27.8933 304.035 28.2C304.369 28.5067 304.642 28.82 304.855 29.14C305.069 29.46 305.175 29.74 305.175 29.98C305.175 30.42 305.162 30.94 305.135 31.54C305.109 32.14 305.082 32.7533 305.055 33.38C305.029 33.9933 305.015 34.5533 305.015 35.06C305.015 35.46 305.082 35.74 305.215 35.9C305.349 36.0467 305.602 36.1933 305.975 36.34L305.715 36.9ZM300.555 34.4C300.555 34.7333 300.615 34.9467 300.735 35.04C300.855 35.12 301.002 35.16 301.175 35.16C301.722 35.16 302.175 35.02 302.535 34.74C302.909 34.4467 303.095 33.9933 303.095 33.38C303.095 33.26 303.095 33.1133 303.095 32.94C303.109 32.7667 303.115 32.5733 303.115 32.36C302.969 32.32 302.789 32.2933 302.575 32.28C302.362 32.2667 302.169 32.26 301.995 32.26C301.515 32.26 301.155 32.3667 300.915 32.58C300.675 32.7933 300.555 33.1667 300.555 33.7V34.4ZM311.957 33.9L313.637 34.98C313.371 35.6067 312.984 36.0867 312.477 36.42C311.984 36.7533 311.424 36.92 310.797 36.92C310.397 36.92 309.971 36.8333 309.517 36.66C309.064 36.4733 308.637 36.24 308.237 35.96C307.837 35.68 307.504 35.3867 307.237 35.08C306.984 34.7733 306.857 34.4867 306.857 34.22C306.857 34.0467 306.857 33.78 306.857 33.42C306.871 33.06 306.877 32.6867 306.877 32.3C306.891 31.9 306.897 31.5667 306.897 31.3V29.66C306.897 28.78 307.164 28.1133 307.697 27.66C308.231 27.1933 308.944 26.96 309.837 26.96C310.117 26.96 310.444 27.0467 310.817 27.22C311.191 27.38 311.557 27.6 311.917 27.88C312.277 28.1467 312.577 28.4467 312.817 28.78C313.057 29.1 313.177 29.42 313.177 29.74C313.177 30.0867 313.164 30.3933 313.137 30.66C313.111 30.9133 313.077 31.1467 313.037 31.36L310.977 30.96C311.084 30.32 311.137 29.76 311.137 29.28C311.137 29.0533 311.091 28.9 310.997 28.82C310.917 28.74 310.784 28.7 310.597 28.7C309.451 28.7 308.877 29.2733 308.877 30.42V32.02C308.877 32.8733 308.864 33.5 308.837 33.9C308.824 34.2867 308.817 34.5933 308.817 34.82C308.817 34.9667 308.884 35.08 309.017 35.16C309.151 35.24 309.317 35.28 309.517 35.28C310.011 35.28 310.431 35.18 310.777 34.98C311.124 34.7667 311.437 34.4267 311.717 33.96L311.957 33.9ZM316.091 25.78L314.771 24.36V24.16C315.131 23.68 315.618 23.26 316.231 22.9L317.551 24.28L317.531 24.52C317.264 24.7067 317.011 24.9133 316.771 25.14C316.544 25.3667 316.318 25.58 316.091 25.78ZM317.871 37.04C317.018 36.72 316.358 36.4333 315.891 36.18C315.438 35.9133 315.211 35.6733 315.211 35.46C315.211 35.2733 315.231 34.9867 315.271 34.6C315.324 34.2 315.351 33.8133 315.351 33.44V30.58C315.351 30.2333 315.364 29.9133 315.391 29.62C315.431 29.3133 315.491 29.0467 315.571 28.82H314.911L313.851 27.46L313.991 27.12H316.551L317.711 28.68C317.551 28.8933 317.444 29.16 317.391 29.48C317.351 29.8 317.331 30.2067 317.331 30.7V33.66C317.331 34.14 317.311 34.5667 317.271 34.94C317.231 35.3 317.211 35.5733 317.211 35.76C317.211 35.8933 317.258 36 317.351 36.08C317.458 36.1467 317.711 36.2867 318.111 36.5L317.871 37.04ZM323.376 36.9C323.056 36.9 322.67 36.82 322.216 36.66C321.763 36.5 321.323 36.2867 320.896 36.02C320.47 35.7533 320.11 35.4467 319.816 35.1C319.536 34.7533 319.396 34.4 319.396 34.04C319.396 33.88 319.416 33.4133 319.456 32.64C319.51 31.8667 319.536 30.9 319.536 29.74C319.536 28.8067 319.81 28.12 320.356 27.68C320.903 27.24 321.723 27.02 322.816 27.02C323.136 27.02 323.49 27.12 323.876 27.32C324.276 27.52 324.656 27.78 325.016 28.1C325.376 28.42 325.67 28.76 325.896 29.12C326.136 29.4667 326.256 29.7933 326.256 30.1C326.256 30.6067 326.243 31.1533 326.216 31.74C326.203 32.3267 326.196 33.08 326.196 34C326.196 34.8533 325.963 35.5533 325.496 36.1C325.03 36.6333 324.323 36.9 323.376 36.9ZM322.096 35.2C322.83 35.2 323.363 35.0467 323.696 34.74C324.043 34.4333 324.216 33.98 324.216 33.38C324.216 32.9533 324.223 32.4733 324.236 31.94C324.25 31.3933 324.263 30.8933 324.276 30.44C324.29 29.9733 324.296 29.6467 324.296 29.46C324.296 29.2333 324.256 29.0667 324.176 28.96C324.096 28.84 323.936 28.78 323.696 28.78C322.976 28.78 322.423 28.9067 322.036 29.16C321.663 29.4 321.476 29.86 321.476 30.54C321.476 31.82 321.463 32.7867 321.436 33.44C321.41 34.08 321.396 34.5133 321.396 34.74C321.396 35.0467 321.63 35.2 322.096 35.2ZM330.796 37C329.943 36.68 329.283 36.3933 328.816 36.14C328.363 35.8733 328.136 35.6333 328.136 35.42C328.136 35.2333 328.156 34.9467 328.196 34.56C328.249 34.16 328.276 33.7733 328.276 33.4V30.84C328.276 30.5733 328.283 30.24 328.296 29.84C328.323 29.44 328.369 29.1 328.436 28.82H327.696L326.656 27.44L326.796 27.12H328.676C328.729 27.12 328.843 27.2133 329.016 27.4C329.203 27.5733 329.389 27.7733 329.576 28C329.829 27.6533 330.143 27.4 330.516 27.24C330.903 27.0667 331.276 26.98 331.636 26.98H332.056C332.323 26.98 332.616 27.0867 332.936 27.3C333.269 27.5133 333.589 27.7733 333.896 28.08C334.216 28.3867 334.476 28.6933 334.676 29C334.876 29.2933 334.976 29.5333 334.976 29.72C334.976 30.0533 334.963 30.4667 334.936 30.96C334.909 31.4533 334.896 31.8533 334.896 32.16V33.62C334.896 34.1 334.876 34.5267 334.836 34.9C334.796 35.26 334.776 35.5333 334.776 35.72C334.776 35.8533 334.823 35.96 334.916 36.04C335.023 36.1067 335.276 36.2467 335.676 36.46L335.436 37C334.583 36.68 333.923 36.3933 333.456 36.14C333.003 35.8733 332.776 35.6333 332.776 35.42C332.776 35.2333 332.796 34.9467 332.836 34.56C332.889 34.16 332.916 33.7733 332.916 33.4V32.36C332.916 31.9333 332.929 31.4467 332.956 30.9C332.983 30.3533 332.996 29.8733 332.996 29.46C332.996 29.1933 332.963 29.0133 332.896 28.92C332.829 28.8267 332.683 28.78 332.456 28.78C331.709 28.78 331.156 28.9733 330.796 29.36C330.436 29.7333 330.256 30.2533 330.256 30.92V33.62C330.256 34.1 330.236 34.5267 330.196 34.9C330.156 35.26 330.136 35.5333 330.136 35.72C330.136 35.8533 330.183 35.96 330.276 36.04C330.383 36.1067 330.636 36.2467 331.036 36.46L330.796 37Z" fill="black"/>
<line x1="352.5" y1="11" x2="352.5" y2="47" stroke="white"/>
<line x1="352.002" y1="47.1432" x2="248.005" y2="47.8568" stroke="white"/>
<path d="M360.96 39.94V39.4H365.78V39.94L364.68 40.04C364.467 40.0667 364.34 40.12 364.3 40.2C364.26 40.28 364.24 40.5533 364.24 41.02V51.38C364.24 51.8467 364.26 52.12 364.3 52.2C364.34 52.28 364.467 52.3333 364.68 52.36L365.78 52.48V53H360.96V52.48L362.06 52.36C362.273 52.3333 362.4 52.28 362.44 52.2C362.48 52.12 362.5 51.8467 362.5 51.38V41.02C362.5 40.5533 362.48 40.28 362.44 40.2C362.4 40.12 362.273 40.0667 362.06 40.04L360.96 39.94ZM378.618 52.48V53H373.898V52.48L374.998 52.36C375.212 52.3333 375.338 52.28 375.378 52.2C375.418 52.12 375.438 51.8467 375.438 51.38V46.4C375.438 45.4133 375.278 44.72 374.958 44.32C374.638 43.9067 374.178 43.7 373.578 43.7C373.138 43.7 372.652 43.8333 372.118 44.1C371.585 44.3667 371.085 44.8867 370.618 45.66V51.38C370.618 51.8467 370.638 52.12 370.678 52.2C370.718 52.28 370.845 52.3333 371.058 52.36L372.158 52.48V53H367.438V52.48L368.538 52.36C368.752 52.3333 368.878 52.28 368.918 52.2C368.958 52.12 368.978 51.8467 368.978 51.38V44.72C368.978 44.2533 368.958 43.98 368.918 43.9C368.878 43.82 368.752 43.7667 368.538 43.74L367.438 43.64V43.1H370.518V44.72C370.998 44.08 371.538 43.62 372.138 43.34C372.752 43.0467 373.365 42.9 373.978 42.9C374.965 42.9 375.725 43.2067 376.258 43.82C376.805 44.42 377.078 45.2733 377.078 46.38V51.38C377.078 51.8467 377.098 52.12 377.138 52.2C377.178 52.28 377.305 52.3333 377.518 52.36L378.618 52.48ZM382.122 40.86C381.802 40.86 381.535 40.76 381.322 40.56C381.122 40.3467 381.022 40.0733 381.022 39.74C381.022 39.42 381.122 39.16 381.322 38.96C381.535 38.76 381.802 38.66 382.122 38.66C382.442 38.66 382.702 38.76 382.902 38.96C383.115 39.16 383.222 39.42 383.222 39.74C383.222 40.0733 383.115 40.3467 382.902 40.56C382.702 40.76 382.442 40.86 382.122 40.86ZM379.782 43.64V43.1H382.962V51.38C382.962 51.8467 382.982 52.12 383.022 52.2C383.062 52.28 383.189 52.3333 383.402 52.36L384.502 52.48V53H379.782V52.48L380.882 52.36C381.095 52.3333 381.222 52.28 381.262 52.2C381.302 52.12 381.322 51.8467 381.322 51.38V44.72C381.322 44.2533 381.302 43.98 381.262 43.9C381.222 43.82 381.095 43.7667 380.882 43.74L379.782 43.64ZM390.439 43.54C389.705 43.54 389.132 43.8467 388.719 44.46C388.319 45.06 388.119 46.0533 388.119 47.44V48.64C388.119 50.04 388.319 51.0467 388.719 51.66C389.132 52.26 389.799 52.56 390.719 52.56C391.345 52.56 391.852 52.4 392.239 52.08C392.625 51.76 392.885 51.2067 393.019 50.42L394.079 50.72C393.839 51.6267 393.399 52.2667 392.759 52.64C392.119 53.0133 391.405 53.2 390.619 53.2C389.179 53.2 388.099 52.7533 387.379 51.86C386.672 50.9533 386.319 49.7467 386.319 48.24V47.84C386.319 46.3467 386.672 45.1533 387.379 44.26C388.085 43.3533 389.105 42.9 390.439 42.9C391.292 42.9 391.999 43.0667 392.559 43.4C393.132 43.7333 393.539 44.1867 393.779 44.76C394.019 45.32 394.085 45.94 393.979 46.62L392.399 46.86C392.545 45.7933 392.445 44.9733 392.099 44.4C391.765 43.8267 391.212 43.54 390.439 43.54ZM398.138 40.86C397.818 40.86 397.551 40.76 397.338 40.56C397.138 40.3467 397.038 40.0733 397.038 39.74C397.038 39.42 397.138 39.16 397.338 38.96C397.551 38.76 397.818 38.66 398.138 38.66C398.458 38.66 398.718 38.76 398.918 38.96C399.131 39.16 399.238 39.42 399.238 39.74C399.238 40.0733 399.131 40.3467 398.918 40.56C398.718 40.76 398.458 40.86 398.138 40.86ZM395.798 43.64V43.1H398.978V51.38C398.978 51.8467 398.998 52.12 399.038 52.2C399.078 52.28 399.204 52.3333 399.418 52.36L400.518 52.48V53H395.798V52.48L396.898 52.36C397.111 52.3333 397.238 52.28 397.278 52.2C397.318 52.12 397.338 51.8467 397.338 51.38V44.72C397.338 44.2533 397.318 43.98 397.278 43.9C397.238 43.82 397.111 43.7667 396.898 43.74L395.798 43.64ZM410.974 47.84V48.24C410.974 49.7467 410.594 50.9533 409.834 51.86C409.088 52.7533 408.021 53.2 406.634 53.2C405.261 53.2 404.194 52.7533 403.434 51.86C402.688 50.9533 402.314 49.7467 402.314 48.24V47.84C402.314 46.3467 402.688 45.1533 403.434 44.26C404.181 43.3533 405.248 42.9 406.634 42.9C408.021 42.9 409.088 43.3533 409.834 44.26C410.594 45.1533 410.974 46.3467 410.974 47.84ZM409.174 47.44C409.174 46.0533 408.954 45.06 408.514 44.46C408.088 43.8467 407.461 43.54 406.634 43.54C405.821 43.54 405.194 43.8467 404.754 44.46C404.328 45.06 404.114 46.0533 404.114 47.44V48.64C404.114 50.04 404.328 51.0467 404.754 51.66C405.194 52.26 405.821 52.56 406.634 52.56C407.461 52.56 408.088 52.26 408.514 51.66C408.954 51.0467 409.174 50.04 409.174 48.64V47.44Z" fill="white"/>
<path d="M462.26 55.96L462.54 57.74C461.5 57.74 460.573 57.48 459.76 56.96C458.947 56.4533 458.293 55.5333 457.8 54.2H457.68C455.987 54.2 454.693 53.6467 453.8 52.54C452.92 51.42 452.48 49.8867 452.48 47.94V46.44C452.48 44.5067 452.92 42.9867 453.8 41.88C454.693 40.76 455.987 40.2 457.68 40.2C459.347 40.2 460.627 40.76 461.52 41.88C462.427 42.9867 462.88 44.5067 462.88 46.44V47.94C462.88 49.7133 462.5 51.1467 461.74 52.24C460.993 53.32 459.92 53.9533 458.52 54.14C458.827 54.8467 459.273 55.3267 459.86 55.58C460.447 55.8333 461.247 55.96 462.26 55.96ZM460.98 45.44C460.98 43.7733 460.7 42.5933 460.14 41.9C459.58 41.1933 458.76 40.84 457.68 40.84C456.587 40.84 455.76 41.1933 455.2 41.9C454.653 42.5933 454.38 43.7733 454.38 45.44V48.94C454.38 50.6067 454.653 51.7933 455.2 52.5C455.76 53.2067 456.587 53.56 457.68 53.56C458.76 53.56 459.58 53.2067 460.14 52.5C460.7 51.7933 460.98 50.6067 460.98 48.94V45.44ZM475.759 53.48V54H472.679V52.4C472.213 53.0267 471.679 53.4867 471.079 53.78C470.493 54.06 469.906 54.2 469.319 54.2C468.373 54.2 467.633 53.9 467.099 53.3C466.579 52.6867 466.319 51.8267 466.319 50.72V45.72C466.319 45.2533 466.299 44.98 466.259 44.9C466.219 44.82 466.093 44.7667 465.879 44.74L464.779 44.64V44.1H467.959V50.7C467.959 51.6867 468.106 52.3867 468.399 52.8C468.706 53.2 469.146 53.4 469.719 53.4C470.146 53.4 470.613 53.2667 471.119 53C471.639 52.7333 472.126 52.22 472.579 51.46V45.72C472.579 45.2533 472.559 44.98 472.519 44.9C472.479 44.8067 472.353 44.7533 472.139 44.74L470.639 44.64V44.1H474.219V52.38C474.219 52.8467 474.239 53.12 474.279 53.2C474.319 53.28 474.446 53.3333 474.659 53.36L475.759 53.48ZM485.552 51.72C485.312 52.6267 484.859 53.2667 484.192 53.64C483.539 54.0133 482.812 54.2 482.012 54.2C480.532 54.2 479.425 53.7533 478.692 52.86C477.959 51.9533 477.592 50.7467 477.592 49.24V48.84C477.592 47.3467 477.945 46.1533 478.652 45.26C479.359 44.3533 480.385 43.9 481.732 43.9C482.452 43.9 483.105 44.0467 483.692 44.34C484.292 44.6333 484.765 45.0667 485.112 45.64C485.472 46.2133 485.652 46.9267 485.652 47.78C485.652 48.18 485.612 48.6 485.532 49.04H479.392V49.64C479.392 51.04 479.605 52.0467 480.032 52.66C480.472 53.26 481.179 53.56 482.152 53.56C482.765 53.56 483.272 53.4 483.672 53.08C484.085 52.76 484.359 52.2067 484.492 51.42L485.552 51.72ZM481.732 44.54C480.945 44.54 480.359 44.84 479.972 45.44C479.585 46.04 479.392 47.0267 479.392 48.4H483.892V48.34C483.919 48.1667 483.939 48 483.952 47.84C483.965 47.6667 483.972 47.5133 483.972 47.38C483.972 46.38 483.765 45.66 483.352 45.22C482.939 44.7667 482.399 44.54 481.732 44.54ZM500.591 51.72C500.351 52.6267 499.898 53.2667 499.231 53.64C498.578 54.0133 497.851 54.2 497.051 54.2C495.571 54.2 494.464 53.7533 493.731 52.86C492.998 51.9533 492.631 50.7467 492.631 49.24V48.84C492.631 47.3467 492.984 46.1533 493.691 45.26C494.398 44.3533 495.424 43.9 496.771 43.9C497.491 43.9 498.144 44.0467 498.731 44.34C499.331 44.6333 499.804 45.0667 500.151 45.64C500.511 46.2133 500.691 46.9267 500.691 47.78C500.691 48.18 500.651 48.6 500.571 49.04H494.431V49.64C494.431 51.04 494.644 52.0467 495.071 52.66C495.511 53.26 496.218 53.56 497.191 53.56C497.804 53.56 498.311 53.4 498.711 53.08C499.124 52.76 499.398 52.2067 499.531 51.42L500.591 51.72ZM496.771 44.54C495.984 44.54 495.398 44.84 495.011 45.44C494.624 46.04 494.431 47.0267 494.431 48.4H498.931V48.34C498.958 48.1667 498.978 48 498.991 47.84C499.004 47.6667 499.011 47.5133 499.011 47.38C499.011 46.38 498.804 45.66 498.391 45.22C497.978 44.7667 497.438 44.54 496.771 44.54ZM506.799 49.96L505.579 49.66C503.912 49.2333 503.079 48.2733 503.079 46.78C503.079 46.2867 503.192 45.82 503.419 45.38C503.646 44.94 504.006 44.5867 504.499 44.32C505.006 44.04 505.652 43.9 506.439 43.9C507.319 43.9 508.026 44.0467 508.559 44.34C509.092 44.6333 509.466 45.0133 509.679 45.48C509.892 45.9467 509.959 46.4533 509.879 47L508.319 47.28C508.479 46.4133 508.386 45.74 508.039 45.26C507.706 44.78 507.152 44.54 506.379 44.54C505.779 44.54 505.299 44.6933 504.939 45C504.579 45.2933 504.399 45.7267 504.399 46.3C504.399 46.7267 504.532 47.1067 504.799 47.44C505.066 47.76 505.512 48 506.139 48.16L507.399 48.46C508.279 48.6733 508.959 49.0133 509.439 49.48C509.932 49.9467 510.179 50.56 510.179 51.32C510.179 52.1733 509.866 52.8667 509.239 53.4C508.626 53.9333 507.746 54.2 506.599 54.2C506.052 54.2 505.519 54.12 504.999 53.96C504.492 53.7867 504.046 53.52 503.659 53.16C503.286 52.7867 503.012 52.3067 502.839 51.72L503.959 51.32C504.106 52.16 504.426 52.7467 504.919 53.08C505.412 53.4133 505.979 53.58 506.619 53.58C506.992 53.58 507.346 53.52 507.679 53.4C508.026 53.28 508.306 53.0933 508.519 52.84C508.732 52.5733 508.839 52.2333 508.839 51.82C508.839 51.3933 508.692 51.0267 508.399 50.72C508.106 50.4133 507.572 50.16 506.799 49.96ZM516.472 50.32H515.532V49.88C515.532 49.28 515.618 48.8 515.792 48.44C515.978 48.0667 516.205 47.7467 516.472 47.48C516.738 47.2 517.005 46.92 517.272 46.64C517.538 46.3467 517.758 45.9933 517.932 45.58C518.118 45.1533 518.212 44.5933 518.212 43.9C518.212 42.8733 518.025 42.1067 517.652 41.6C517.278 41.0933 516.745 40.84 516.052 40.84C515.172 40.84 514.558 41.1733 514.212 41.84C513.865 42.4933 513.758 43.4333 513.892 44.66L512.252 44.34C512.132 43.62 512.185 42.9467 512.412 42.32C512.652 41.6933 513.078 41.1867 513.692 40.8C514.305 40.4 515.098 40.2 516.072 40.2C517.018 40.2 517.785 40.3667 518.372 40.7C518.958 41.0333 519.385 41.4667 519.652 42C519.918 42.52 520.052 43.08 520.052 43.68C520.052 44.2933 519.952 44.8067 519.752 45.22C519.565 45.62 519.325 45.9667 519.032 46.26C518.738 46.54 518.425 46.7933 518.092 47.02C517.772 47.2467 517.472 47.4867 517.192 47.74C516.925 47.98 516.712 48.2667 516.552 48.6C516.405 48.9333 516.358 49.3533 516.412 49.86L516.472 50.32ZM515.972 54.2C515.638 54.2 515.365 54.0933 515.152 53.88C514.952 53.6667 514.852 53.3933 514.852 53.06C514.852 52.7267 514.952 52.46 515.152 52.26C515.365 52.0467 515.638 51.94 515.972 51.94C516.305 51.94 516.578 52.0467 516.792 52.26C517.005 52.46 517.112 52.7267 517.112 53.06C517.112 53.3933 517.005 53.6667 516.792 53.88C516.578 54.0933 516.305 54.2 515.972 54.2Z" fill="white"/>
<path d="M581.02 50.74H581.54V54H571.96V53.48L573.06 53.36C573.273 53.3333 573.4 53.28 573.44 53.2C573.48 53.12 573.5 52.8467 573.5 52.38V42.02C573.5 41.5533 573.48 41.28 573.44 41.2C573.4 41.12 573.273 41.0667 573.06 41.04L571.96 40.94V40.4H581.28V43.66H580.78L580.2 41.56C580.16 41.4 580.113 41.2867 580.06 41.22C580.02 41.14 579.933 41.0933 579.8 41.08C579.667 41.0533 579.44 41.04 579.12 41.04H575.24V46.82H577.92C578.24 46.82 578.467 46.8133 578.6 46.8C578.733 46.7733 578.82 46.7267 578.86 46.66C578.913 46.58 578.96 46.46 579 46.3L579.38 44.8H579.9V49.48H579.38L579 47.98C578.96 47.82 578.913 47.7067 578.86 47.64C578.82 47.56 578.733 47.5133 578.6 47.5C578.467 47.4733 578.24 47.46 577.92 47.46H575.24V53.36H579.36C579.68 53.36 579.907 53.3533 580.04 53.34C580.173 53.3133 580.26 53.2667 580.3 53.2C580.353 53.12 580.4 53 580.44 52.84L581.02 50.74ZM585.502 41.86C585.182 41.86 584.915 41.76 584.702 41.56C584.502 41.3467 584.402 41.0733 584.402 40.74C584.402 40.42 584.502 40.16 584.702 39.96C584.915 39.76 585.182 39.66 585.502 39.66C585.822 39.66 586.082 39.76 586.282 39.96C586.495 40.16 586.602 40.42 586.602 40.74C586.602 41.0733 586.495 41.3467 586.282 41.56C586.082 41.76 585.822 41.86 585.502 41.86ZM583.162 44.64V44.1H586.342V55.04C586.342 55.64 586.242 56.2 586.042 56.72C585.855 57.24 585.542 57.66 585.102 57.98C584.662 58.3 584.082 58.46 583.362 58.46C582.708 58.46 582.148 58.28 581.682 57.92C581.215 57.5733 580.922 56.9733 580.802 56.12L581.882 55.82C581.935 56.5933 582.082 57.12 582.322 57.4C582.562 57.68 582.868 57.82 583.242 57.82C583.708 57.82 584.068 57.6333 584.322 57.26C584.575 56.9 584.702 56.2133 584.702 55.2V45.72C584.702 45.2533 584.682 44.98 584.642 44.9C584.602 44.82 584.475 44.7667 584.262 44.74L583.162 44.64ZM597.525 51.72C597.285 52.6267 596.831 53.2667 596.165 53.64C595.511 54.0133 594.785 54.2 593.985 54.2C592.505 54.2 591.398 53.7533 590.665 52.86C589.931 51.9533 589.565 50.7467 589.565 49.24V48.84C589.565 47.3467 589.918 46.1533 590.625 45.26C591.331 44.3533 592.358 43.9 593.705 43.9C594.425 43.9 595.078 44.0467 595.665 44.34C596.265 44.6333 596.738 45.0667 597.085 45.64C597.445 46.2133 597.625 46.9267 597.625 47.78C597.625 48.18 597.585 48.6 597.505 49.04H591.365V49.64C591.365 51.04 591.578 52.0467 592.005 52.66C592.445 53.26 593.151 53.56 594.125 53.56C594.738 53.56 595.245 53.4 595.645 53.08C596.058 52.76 596.331 52.2067 596.465 51.42L597.525 51.72ZM593.705 44.54C592.918 44.54 592.331 44.84 591.945 45.44C591.558 46.04 591.365 47.0267 591.365 48.4H595.865V48.34C595.891 48.1667 595.911 48 595.925 47.84C595.938 47.6667 595.945 47.5133 595.945 47.38C595.945 46.38 595.738 45.66 595.325 45.22C594.911 44.7667 594.371 44.54 593.705 44.54ZM610.493 53.48V54H605.773V53.48L606.873 53.36C607.086 53.3333 607.213 53.28 607.253 53.2C607.293 53.12 607.313 52.8467 607.313 52.38V47.4C607.313 46.4133 607.159 45.72 606.853 45.32C606.559 44.9067 606.126 44.7 605.553 44.7C605.139 44.7 604.673 44.8333 604.153 45.1C603.646 45.3667 603.159 45.88 602.693 46.64V52.38C602.693 52.8467 602.713 53.12 602.753 53.2C602.793 53.28 602.919 53.3333 603.133 53.36L604.233 53.48V54H599.513V53.48L600.613 53.36C600.826 53.3333 600.953 53.28 600.993 53.2C601.033 53.12 601.053 52.8467 601.053 52.38V45.72C601.053 45.2533 601.033 44.98 600.993 44.9C600.953 44.82 600.826 44.7667 600.613 44.74L599.513 44.64V44.1H602.593V45.72C603.059 45.0933 603.586 44.6333 604.173 44.34C604.773 44.0467 605.366 43.9 605.953 43.9C607.393 43.9 608.319 44.56 608.733 45.88C609.226 45.1867 609.773 44.6867 610.373 44.38C610.986 44.06 611.599 43.9 612.213 43.9C613.159 43.9 613.893 44.2067 614.413 44.82C614.946 45.42 615.213 46.2733 615.213 47.38V52.38C615.213 52.8467 615.233 53.12 615.273 53.2C615.313 53.28 615.439 53.3333 615.653 53.36L616.753 53.48V54H612.033V53.48L613.133 53.36C613.346 53.3333 613.473 53.28 613.513 53.2C613.553 53.12 613.573 52.8467 613.573 52.38V47.4C613.573 46.4133 613.419 45.72 613.113 45.32C612.819 44.9067 612.386 44.7 611.813 44.7C611.399 44.7 610.926 44.84 610.393 45.12C609.873 45.3867 609.379 45.9133 608.912 46.7C608.926 46.8067 608.933 46.92 608.933 47.04C608.946 47.1467 608.953 47.26 608.953 47.38V52.38C608.953 52.8467 608.973 53.12 609.013 53.2C609.053 53.28 609.179 53.3333 609.393 53.36L610.493 53.48ZM617.771 44.62V44.1H620.851V45.7C621.251 45.0733 621.698 44.62 622.191 44.34C622.698 44.0467 623.258 43.9 623.871 43.9C625.018 43.9 625.904 44.3333 626.531 45.2C627.171 46.0667 627.491 47.28 627.491 48.84V49.24C627.491 50.76 627.124 51.9667 626.391 52.86C625.658 53.7533 624.638 54.2 623.331 54.2C622.398 54.2 621.604 53.9133 620.951 53.34V56.64C620.951 57.0933 620.971 57.36 621.011 57.44C621.051 57.5333 621.178 57.5933 621.391 57.62L622.891 57.72V58.26H617.771V57.72L618.871 57.62C619.084 57.5933 619.211 57.5333 619.251 57.44C619.291 57.36 619.311 57.0933 619.311 56.64V45.72C619.311 45.2533 619.291 44.98 619.251 44.9C619.211 44.82 619.084 44.7667 618.871 44.74L617.771 44.62ZM623.611 44.62C623.198 44.62 622.764 44.7533 622.311 45.02C621.871 45.2867 621.418 45.8267 620.951 46.64V52.36C621.524 53.1467 622.284 53.54 623.231 53.54C624.098 53.54 624.724 53.2133 625.111 52.56C625.498 51.8933 625.691 50.9867 625.691 49.84V48.24C625.691 46.9867 625.511 46.0733 625.151 45.5C624.791 44.9133 624.278 44.62 623.611 44.62ZM629.373 39.74V39.2H632.553V52.38C632.553 52.8467 632.573 53.12 632.613 53.2C632.653 53.28 632.779 53.3333 632.993 53.36L634.092 53.48V54H629.373V53.48L630.473 53.36C630.686 53.3333 630.813 53.28 630.853 53.2C630.893 53.12 630.913 52.8467 630.913 52.38V40.82C630.913 40.3533 630.893 40.08 630.853 40C630.813 39.92 630.686 39.8667 630.473 39.84L629.373 39.74ZM644.572 48.84V49.24C644.572 50.7467 644.192 51.9533 643.432 52.86C642.685 53.7533 641.619 54.2 640.232 54.2C638.859 54.2 637.792 53.7533 637.032 52.86C636.285 51.9533 635.912 50.7467 635.912 49.24V48.84C635.912 47.3467 636.285 46.1533 637.032 45.26C637.779 44.3533 638.845 43.9 640.232 43.9C641.619 43.9 642.685 44.3533 643.432 45.26C644.192 46.1533 644.572 47.3467 644.572 48.84ZM642.772 48.44C642.772 47.0533 642.552 46.06 642.112 45.46C641.685 44.8467 641.059 44.54 640.232 44.54C639.419 44.54 638.792 44.8467 638.352 45.46C637.925 46.06 637.712 47.0533 637.712 48.44V49.64C637.712 51.04 637.925 52.0467 638.352 52.66C638.792 53.26 639.419 53.56 640.232 53.56C641.059 53.56 641.685 53.26 642.112 52.66C642.552 52.0467 642.772 51.04 642.772 49.64V48.44ZM650.725 49.96L649.505 49.66C647.838 49.2333 647.005 48.2733 647.005 46.78C647.005 46.2867 647.118 45.82 647.345 45.38C647.571 44.94 647.931 44.5867 648.425 44.32C648.931 44.04 649.578 43.9 650.365 43.9C651.245 43.9 651.951 44.0467 652.485 44.34C653.018 44.6333 653.391 45.0133 653.605 45.48C653.818 45.9467 653.885 46.4533 653.805 47L652.245 47.28C652.405 46.4133 652.311 45.74 651.965 45.26C651.631 44.78 651.078 44.54 650.305 44.54C649.705 44.54 649.225 44.6933 648.865 45C648.505 45.2933 648.325 45.7267 648.325 46.3C648.325 46.7267 648.458 47.1067 648.725 47.44C648.991 47.76 649.438 48 650.065 48.16L651.325 48.46C652.205 48.6733 652.885 49.0133 653.365 49.48C653.858 49.9467 654.105 50.56 654.105 51.32C654.105 52.1733 653.791 52.8667 653.165 53.4C652.551 53.9333 651.671 54.2 650.525 54.2C649.978 54.2 649.445 54.12 648.925 53.96C648.418 53.7867 647.971 53.52 647.585 53.16C647.211 52.7867 646.938 52.3067 646.765 51.72L647.885 51.32C648.031 52.16 648.351 52.7467 648.845 53.08C649.338 53.4133 649.905 53.58 650.545 53.58C650.918 53.58 651.271 53.52 651.605 53.4C651.951 53.28 652.231 53.0933 652.445 52.84C652.658 52.5733 652.765 52.2333 652.765 51.82C652.765 51.3933 652.618 51.0267 652.325 50.72C652.031 50.4133 651.498 50.16 650.725 49.96Z" fill="white"/>
<line x1="431" y1="70.0061" x2="431" y2="28.9939" stroke="white"/>
<line x1="549.5" y1="70.0122" x2="549.5" y2="29" stroke="white"/>
</svg>
